<svg version="1" xmlns="http://www.w3.org/2000/svg" width="1365.333" height="1365.333" viewBox="0 0 1024.000000 1024.000000"><path d="M84.7 1.6c-40.3 7.3-71.2 36.2-82 76.8L.5 86.5v850l2.3 8.9c9.6 37.7 37.7 65.8 75.7 75.7l9 2.4h423c456.9 0 427.7.3 443.9-5.1 36.1-12.3 63.3-45.1 68.5-82.8 1.5-10.6 1.5-832.5.1-844.6-3-24.4-13.7-45.8-31.1-62.5C978.6 15.8 964 7.7 945.5 2.7l-8-2.2L515 .3C153.6.2 91.4.4 84.7 1.6zM552 250c65.1 4.1 111.7 23 139.4 56.5 15.4 18.6 23.3 39.2 25.7 66.7 4.1 49.1-16.4 87.9-60.3 113.9-3.2 1.8-5.8 3.6-5.8 4 0 .3 3.3 2.7 7.4 5.2 12.3 7.6 22.5 15.6 33.2 25.9 16.4 15.9 26.5 31.6 32.8 50.8 5.1 15.7 6.1 24.9 6.1 53.5-.1 23.9-.2 25.4-2.7 34.8-6.4 23.2-22.8 48.4-42.8 65.5-19 16.2-44.7 29.4-73.3 37.7-34.5 10-84.5 13.9-123.2 9.5-43.6-4.9-101-21.7-138.2-40.4-28.5-14.2-51.1-34.4-55.2-49.1-2.6-9.4-.6-17.1 5.1-20.1 4.3-2.2 13.8-1.5 32.8 2.6 8 1.7 16.2 3.4 18.3 3.7l3.7.6v-11.4c0-48.2 15.9-128.4 38.6-195 20.4-59.8 45.1-100.6 67.6-111.2 4-1.9 9.7-3.8 12.6-4.2 6.7-.9 8.6.6 11 8.4 2.1 7.2 2.1 38.3-.2 58.2-2.5 22.3-11.6 69.6-24.1 126.4-3.6 16-7.1 33.3-8 38.5-1.1 7-8.6 109.8-8.5 117.7 0 1.4 25.4 7.6 40.5 9.9 14.5 2.2 37.9 2.2 51 0 36.2-6 65.9-27.2 76.4-54.5 4.8-12.5 6.2-21.5 6.2-39.8-.1-27.7-3.1-47.4-9.9-64-3-7.2-11.7-21.2-17.4-27.5l-3.3-3.7-9 1.5c-11.3 2-37.1 1.4-49-1.1-9.9-2.1-20.9-7.1-25.4-11.6-7.7-7.7-9.5-19.9-4.3-30 6.5-12.9 22.2-18.6 53.7-19.6 14.8-.4 19.5-.2 26.5 1.2l8.5 1.7 3.8-4.3c5.1-5.9 12.3-20.6 14.7-30.3 4.7-18.7 5.1-42.9 1-57.6-8.5-30.1-32.5-47.3-74-53.1-13.4-1.9-45.6-1.7-60.6.4-13.7 2-32 6.3-44.4 10.5-13.5 4.6-24 9.2-47.8 21-23.8 11.8-33 14.9-42.2 14-10.8-1.1-12.7-6.2-6.5-18.4 15.2-30.4 62.3-65.2 110-81.2 19.9-6.7 35.6-9.8 63.5-12.5 7.9-.8 30.5-.6 46 .3z"/></svg>